# xmcd
#
# Track frame offsets:
#	150
#	31155
#	41646
#	60972
#	115871
#	132789
#	158442
#	178061
#	216075
#	251412
#	278803
#	304893
#	337451
#
# Disc length: 4795 seconds
#
# Revision: 1
# Processed by: cddbd v1.5.2PL0 Copyright (c) Steve Scherf et al.
# Submitted via: audiograbber 1.83.01
#
DISCID=b412b90d
DTITLE=Gary Moore/Bruce,Baker,Moore - Gary Moore - Rozy Select
DYEAR=1900
DGENRE=Blues
TTITLE0=Gary Moore - Stormy Monday
TTITLE1=Gary Moore - Looking Back
TTITLE2=Gary Moore -  Gary Moore
TTITLE3=Bruce-Baker-Moore - Ball and Chain
TTITLE4=Bruce-Baker-Moore -  Waiting in the Wings
TTITLE5=Bruce-Baker-Moore - High Cost of Loving
TTITLE6=Bruce-Baker-Moore - Glory Days
TTITLE7=Bruce-Baker-Moore -  Why Does Love (Have to Go Wrong)
TTITLE8=Bruce-Baker-Moore -  World Keep Turnin' Round
TTITLE9=Bruce-Baker-Moore - Sitting on Top of the World
TTITLE10=Gary Moore - I Can't Quit You Baby
TTITLE11=Gary Moore -  You Know My Love
TTITLE12=Gary Moore -  Cut It Out
EXTD=
EXTT0=
EXTT1=
EXTT2=
EXTT3=
EXTT4=
EXTT5=
EXTT6=
EXTT7=
EXTT8=
EXTT9=
EXTT10=
EXTT11=
EXTT12=
PLAYORDER=
